<?xml version="1.0" encoding="iso-8859-1"?>
<!-- Uploaded to: SVG Repo, www.svgrepo.com, Generator: SVG Repo Mixer Tools -->
<svg height="800px" width="800px" version="1.1" id="Layer_1" xmlns="http://www.w3.org/2000/svg" xmlns:xlink="http://www.w3.org/1999/xlink" 
	 viewBox="0 0 503.6 503.6" xml:space="preserve">
<g>
	<path style="fill:#E8E3E3;" d="M255.6,135.438c30.8,0,58.4,12.4,80.8,32.4l-0.4-42l-165.6-76.8v122.8
		C194.4,149.438,222.8,135.438,255.6,135.438z"/>
	<path style="fill:#E8E3E3;" d="M333.2,452.638v-125.6c-20,20-46.8,32.4-77.2,32.4c-32.8,0-61.6-14-81.2-36.4v53.2H174
		L333.2,452.638z"/>
</g>
<g>
	<path style="fill:#F4EFEF;" d="M145.2,247.438c0-26.8,9.6-51.6,25.2-70.8v-3.6l0,0v-124L7.6,87.438v328l162.8-38.4v-54.4v-4
		C154.8,299.038,145.2,274.238,145.2,247.438z"/>
	<path style="fill:#F4EFEF;" d="M333.2,127.438v44.4c24,20,32.8,46.4,32.8,75.6s-8.8,55.6-28.8,75.6v131.2l162.8-38.4v-328
		l-161.6,38.8C338,127.038,337.2,127.438,333.2,127.438z"/>
</g>
<path style="fill:#54B265;" d="M335.6,174.238c-0.4,0-0.4-0.4-0.8-0.8c0,0,0,0-0.4-0.4c-19.6-20.8-47.6-34-78.8-34
	c-35.6,0-66.8,17.2-86.8,43.6c-13.6,18-21.6,40.4-21.6,64.4s8,46.4,21.6,64.4c19.6,26.4,51.2,43.6,86.8,43.6
	c30.8,0,58.8-13.2,78.8-34c18.4-19.2,29.6-45.6,29.6-74C364,219.438,353.2,193.438,335.6,174.238z"/>
<path d="M4,421.838c-0.8,0-1.6-0.4-2.4-0.8c-0.8-0.8-1.6-2-1.6-3.2v-332c0-2,1.2-3.6,3.2-4l166.8-39.6c2-0.4,4.4,0.8,4.8,2.8
	c0.4,2-0.8,4.4-2.8,4.8L8.4,88.639v323.6l158.8-37.6v-55.6c0-2.4,1.6-4,4-4s4,1.6,4,4v58.8c0,2-1.2,3.6-3.2,4l-166.8,39.2
	C4.8,421.838,4.4,421.838,4,421.838z"/>
<path d="M170.8,180.638c-2.4,0-4-1.6-4-4v-79.2c0-2.4,1.6-4,4-4s4,1.6,4,4v79.2C174.8,179.038,172.8,180.638,170.8,180.638z"/>
<path d="M170.8,73.438c-2.4,0-4-1.6-4-4v-20c0-2.4,1.6-4,4-4s4,1.6,4,4v20C174.8,71.838,172.8,73.438,170.8,73.438z"/>
<path d="M333.2,461.038c-0.4,0-1.2,0-1.6-0.4l-160.4-78.8c-2-0.8-2.8-3.2-2-5.2s3.2-2.8,5.2-2l160.4,78.8c2,0.8,2.8,3.2,2,5.2
	C336.4,460.238,334.8,461.038,333.2,461.038z"/>
<path d="M333.2,169.038c-2.4,0-4-1.6-4-4v-39.6c0-2.4,1.6-4,4-4s4,1.6,4,4v39.6C337.2,167.038,335.6,169.038,333.2,169.038z"/>
<path d="M333.2,461.038c-0.8,0-1.6-0.4-2.4-0.8c-0.8-0.8-1.6-2-1.6-3.2v-129.6c0-2.4,1.6-4,4-4s4,1.6,4,4v124.8l158.8-37.6v-323.6
	l-161.2,37.6c-2,0.4-4.4-0.8-4.8-2.8c-0.4-2,0.8-4.4,2.8-4.8l166-38.8c1.2-0.4,2.4,0,3.2,0.8c0.8,0.8,1.6,2,1.6,3.2v332
	c0,2-1.2,3.6-3.2,4l-166.8,39.2C334,461.038,333.6,461.038,333.2,461.038z"/>
<path d="M333.2,129.038c-0.4,0-1.2,0-1.6-0.4l-162.8-78.8c-2-0.8-2.8-3.2-2-5.2s3.2-2.8,5.2-2l162.8,78.8c2,0.8,2.8,3.2,2,5.2
	C336.4,128.238,334.8,129.038,333.2,129.038z"/>
<path d="M256,361.838c-62.8,0-114-51.2-114-114s51.2-114,114-114s114,51.2,114,114S318.8,361.838,256,361.838z M256,141.838
	c-58.4,0-106,47.6-106,106s47.6,106,106,106s106-47.6,106-106C362,189.038,314.4,141.838,256,141.838z"/>
<path d="M247.2,285.838c-1.2,0-2-0.4-2.8-1.2l-33.2-33.2c-1.6-1.6-1.6-4,0-5.6s4-1.6,5.6,0l33.2,33.2c1.6,1.6,1.6,4,0,5.6
	C249.2,285.438,248,285.838,247.2,285.838z"/>
<path d="M247.2,285.838c-1.2,0-2-0.4-2.8-1.2c-1.6-1.6-1.6-4,0-5.6l55.2-55.2c1.6-1.6,4-1.6,5.6,0s1.6,4,0,5.6l-55.2,55.2
	C249.2,285.438,248,285.838,247.2,285.838z"/>
</svg>